<svg xmlns="http://www.w3.org/2000/svg" version="1.0" width="500.000000" height="246.000000" preserveAspectRatio="xMidYMid meet" style=""><rect id="backgroundrect" width="100%" height="100%" x="0" y="0" fill="none" stroke="none"/>


<g class="currentLayer" style=""><title>Layer 1</title><g transform="translate(0,246) scale(0.10000000149011612,-0.10000000149011612) " fill="#ffffff" stroke="none" id="svg_1" class="" fill-opacity="1">
<path d="M1055 2354 c-27 -2 -218 -8 -423 -14 -388 -12 -538 -27 -287 -29 77 -1 299 -8 494 -16 305 -12 356 -17 372 -31 24 -21 24 -46 2 -72 -19 -22 -65 -25 -718 -50 -190 -7 -190 -7 -85 -13 58 -4 256 -12 440 -19 184 -6 345 -13 357 -16 52 -10 71 -72 31 -98 -17 -11 -85 -17 -263 -26 -479 -22 -492 -23 -455 -31 19 -4 188 -12 374 -19 225 -7 349 -15 365 -23 33 -15 40 -65 14 -90 -15 -13 -60 -18 -258 -27 -132 -6 -280 -15 -330 -18 l-90 -8 115 -7 c63 -4 219 -12 346 -19 158 -8 237 -16 249 -25 23 -16 24 -72 2 -88 -9 -7 -63 -15 -119 -18 -57 -4 -181 -11 -277 -17 -96 -6 -176 -12 -178 -13 -1 -2 93 -9 210 -15 372 -22 377 -22 398 -43 24 -24 24 -54 1 -77 -21 -21 -71 -27 -314 -38 -82 -4 -148 -11 -148 -15 0 -5 10 -9 23 -9 12 0 118 -7 235 -15 234 -15 252 -21 252 -76 0 -45 -29 -55 -193 -69 -182 -15 -236 -28 -122 -29 44 -1 130 -5 190 -10 61 -5 161 -12 223 -16 l112 -7 0 72 c0 77 19 127 62 166 89 82 233 71 350 -26 42 -34 98 -139 98 -182 l0 -28 833 0 833 0 -4 59 c-5 68 9 119 45 162 113 133 361 66 444 -120 10 -24 19 -56 19 -72 l0 -29 155 0 c179 0 165 -11 141 113 -8 40 -17 92 -21 117 -17 119 -69 182 -195 235 -25 10 -63 26 -85 35 -256 107 -233 93 -345 203 -121 118 -200 189 -255 232 -21 17 -50 39 -64 51 -93 73 -241 154 -365 197 -61 22 -62 22 -1101 23 -572 0 -1062 -1 -1090 -2z m2175 -128 c65 -20 157 -62 215 -99 140 -88 365 -284 365 -318 0 -8 -6 -24 -14 -35 -14 -18 -29 -19 -285 -19 -257 0 -271 1 -290 20 -14 15 -27 59 -46 165 -47 263 -46 252 -30 277 18 27 25 27 85 9z" id="svg_2" fill="#ffffff" fill-opacity="1"/>
<path d="M1761 1393 c-40 -8 -108 -85 -116 -131 -13 -77 18 -155 83 -214 165 -149 394 -29 327 173 -19 57 -78 124 -135 152 -36 18 -119 29 -159 20z" id="svg_3" fill="#ffffff" fill-opacity="1"/>
<path d="M3914 1382 c-157 -74 -124 -300 56 -381 90 -41 197 -15 242 57 34 54 32 142 -4 202 -14 25 -37 55 -50 67 -70 64 -173 88 -244 55z" id="svg_4" fill="#ffffff" fill-opacity="1"/>
<path d="M2556 708 c-8 -30 -8 -416 0 -445 7 -26 39 -31 48 -7 3 9 6 112 6 229 0 117 -3 220 -6 229 -9 24 -41 19 -48 -6z" id="svg_5" fill="#ffffff" fill-opacity="1"/>
<path d="M1773 686 c-47 -21 -55 -62 -51 -249 3 -155 4 -159 28 -179 21 -17 36 -19 106 -16 71 3 85 7 118 32 56 43 79 101 78 203 -1 101 -25 161 -79 194 -45 28 -153 36 -200 15z m173 -77 c36 -33 46 -63 46 -140 0 -114 -45 -169 -138 -169 -42 0 -55 4 -64 19 -5 11 -10 78 -10 150 0 120 2 133 21 152 29 29 108 23 145 -12z" id="svg_6" fill="#ffffff" fill-opacity="1"/>
<path d="M2985 691 c-21 -4 -30 -12 -30 -26 0 -17 8 -21 60 -25 l60 -5 5 -195 c5 -189 6 -195 26 -198 20 -3 22 3 29 63 4 36 5 126 4 198 l-3 132 59 5 c51 4 60 8 63 26 3 19 -3 22 -50 27 -64 8 -182 7 -223 -2z" id="svg_7" fill="#ffffff" fill-opacity="1"/>
<path d="M2437 684 c-25 -25 8 -70 43 -59 32 10 24 59 -10 63 -14 2 -29 0 -33 -4z" id="svg_8" fill="#ffffff" fill-opacity="1"/>
<path d="M3507 684 c-25 -25 8 -70 43 -59 32 10 24 59 -10 63 -14 2 -29 0 -33 -4z" id="svg_9" fill="#ffffff" fill-opacity="1"/>
<path d="M2450 566 c-7 -9 -10 -66 -8 -167 3 -146 4 -154 23 -154 17 0 21 9 28 70 11 93 0 252 -18 259 -8 2 -18 -1 -25 -8z" id="svg_10" fill="#ffffff" fill-opacity="1"/>
<path d="M3303 568 c-12 -19 -17 -247 -6 -288 7 -24 15 -35 28 -35 25 0 33 30 34 136 1 97 4 103 72 122 37 11 45 17 47 40 3 25 0 27 -30 27 -18 0 -44 -9 -58 -20 -32 -25 -38 -25 -42 2 -3 26 -32 36 -45 16z" id="svg_11" fill="#ffffff" fill-opacity="1"/>
<path d="M3520 566 c-7 -9 -10 -66 -8 -167 3 -146 4 -154 23 -154 17 0 21 9 28 70 11 93 0 252 -18 259 -8 2 -18 -1 -25 -8z" id="svg_12" fill="#ffffff" fill-opacity="1"/>
<path d="M2125 537 c-77 -77 -69 -239 14 -281 43 -22 117 -20 156 4 l33 20 5 -21 c4 -13 12 -20 24 -17 15 3 19 16 23 80 3 42 3 113 0 159 -4 71 -8 84 -23 87 -12 3 -20 -4 -24 -17 -7 -26 -9 -26 -40 -1 -19 14 -41 20 -80 20 -49 0 -59 -4 -88 -33z m131 -27 c8 0 26 -11 39 -25 21 -20 25 -34 25 -80 0 -49 -4 -60 -29 -86 -81 -81 -188 12 -152 133 9 29 20 43 44 53 18 8 38 12 45 10 8 -3 20 -5 28 -5z" id="svg_13" fill="#ffffff" fill-opacity="1"/>
<path d="M2634 557 c-6 -15 15 -71 73 -197 l40 -85 -34 -70 c-36 -76 -40 -100 -19 -108 21 -8 35 12 124 178 97 179 137 274 123 288 -19 19 -39 -3 -97 -107 -32 -58 -62 -106 -65 -106 -4 0 -23 39 -44 88 -20 48 -43 97 -51 110 -16 25 -42 29 -50 9z" id="svg_14" fill="#ffffff" fill-opacity="1"/>
<path d="M3693 550 c-43 -26 -62 -65 -72 -152 -13 -99 -1 -296 18 -307 38 -24 52 12 44 111 l-6 70 31 -16 c43 -22 100 -20 152 7 54 27 80 73 80 142 0 102 -61 165 -159 165 -38 0 -66 -6 -88 -20z m138 -53 c26 -20 39 -53 39 -102 0 -59 -32 -95 -84 -95 -48 0 -65 8 -81 41 -27 51 -11 147 27 162 24 10 83 6 99 -6z" id="svg_15" fill="#ffffff" fill-opacity="1"/>
</g></g></svg>